<?xml version="1.0" standalone="no"?>
<!DOCTYPE svg PUBLIC "-//W3C//DTD SVG 20010904//EN"
 "http://www.w3.org/TR/2001/REC-SVG-20010904/DTD/svg10.dtd">
<svg version="1.0" xmlns="http://www.w3.org/2000/svg"
 width="800.000000pt" height="800.000000pt" viewBox="0 0 800.000000 800.000000"
 preserveAspectRatio="xMidYMid meet">
<metadata>
Created by potrace 1.14, written by Peter Selinger 2001-2017
</metadata>
<g transform="translate(0.000000,800.000000) scale(0.100000,-0.100000)"
fill="#000000" stroke="none">
<path d="M3411 6476 c-6 -61 -14 -133 -16 -161 -9 -95 -22 -172 -35 -194 -6
-13 -20 -46 -30 -74 -9 -29 -29 -77 -42 -107 -14 -30 -33 -75 -43 -100 -10
-25 -21 -54 -26 -65 -60 -142 -81 -207 -99 -310 -12 -66 -21 -127 -21 -135 0
-8 -5 -24 -9 -35 -5 -11 -27 -132 -50 -270 -22 -137 -45 -261 -50 -275 -5 -14
-11 -45 -15 -70 -5 -42 -9 -46 -57 -70 -29 -14 -72 -41 -98 -60 -43 -33 -48
-34 -120 -32 -41 1 -76 6 -78 12 -13 38 -95 105 -144 116 -243 59 -389 -10
-390 -182 -1 -107 46 -197 132 -257 25 -17 50 -36 57 -42 72 -61 167 -113 243
-131 19 -4 42 -10 50 -12 34 -10 110 -16 193 -16 72 0 87 -3 87 -16 0 -25 -50
-312 -59 -345 -5 -16 -10 -37 -10 -45 0 -8 -21 -127 -47 -265 -89 -487 -101
-560 -92 -569 4 -6 40 -15 80 -21 40 -6 73 -16 73 -22 0 -6 -28 -32 -63 -58
-148 -111 -222 -261 -222 -450 0 -196 110 -341 291 -382 212 -48 439 80 557
313 10 21 25 64 33 94 11 49 24 66 108 155 89 93 110 121 125 168 4 12 14 17
28 15 18 -2 24 -12 29 -43 4 -22 10 -49 13 -60 3 -11 9 -36 14 -55 5 -19 23
-70 41 -113 28 -71 31 -89 31 -186 0 -147 -15 -213 -63 -285 -80 -119 -98
-238 -47 -320 28 -46 99 -82 192 -97 71 -12 337 -3 352 12 6 5 24 9 40 9 17 0
67 9 112 19 154 35 214 89 214 194 0 40 -44 127 -64 127 -5 0 -18 7 -27 16
-10 9 -47 24 -82 34 -123 34 -194 106 -167 170 6 14 10 36 10 50 -1 14 8 75
19 135 13 70 21 152 21 227 0 64 4 119 9 122 5 3 107 13 228 22 272 19 263 18
264 52 0 15 11 90 25 167 13 77 26 154 28 170 3 17 7 44 11 60 4 17 21 113 37
215 17 102 32 192 35 200 5 15 8 25 17 85 3 17 13 76 23 133 l17 103 121 -8
c284 -19 397 -5 494 62 28 19 54 35 57 35 22 0 204 194 229 244 31 62 33 128
5 173 -22 37 -93 87 -112 80 -7 -2 -20 -1 -28 3 -33 17 -235 -32 -357 -85
l-53 -24 -126 66 -126 66 6 31 c4 17 14 78 22 136 9 58 20 110 24 115 5 6 8
21 8 35 0 14 7 61 15 105 9 44 25 143 37 220 21 133 46 276 56 320 34 148 36
227 8 270 -7 11 -25 51 -39 89 -14 38 -32 81 -41 97 -13 27 -13 43 7 175 12
82 18 149 13 153 -5 4 -40 16 -79 25 -38 10 -79 22 -90 26 -11 5 -74 23 -140
40 -66 17 -127 32 -135 35 -43 13 -95 26 -195 50 -60 15 -114 30 -120 34 -5 4
-71 22 -145 40 -74 18 -142 35 -150 38 -8 3 -22 7 -30 9 -42 10 -247 65 -260
71 -8 3 -89 25 -180 49 -91 23 -186 49 -211 57 l-46 14 -12 -111z m285 -95
c82 -22 190 -50 239 -64 103 -29 210 -58 710 -192 393 -105 431 -117 428 -132
-1 -6 -7 -42 -13 -79 -19 -125 -19 -124 -44 -114 -23 8 -500 130 -846 216 -96
24 -256 64 -355 89 -99 26 -206 52 -237 60 l-58 13 -2 -42 c-1 -22 -2 -76 -2
-118 -1 -90 -7 -87 106 -62 110 24 263 24 317 0 l43 -20 -6 -46 c-8 -57 10
-86 64 -100 24 -6 147 -9 322 -8 251 2 288 1 328 -15 64 -25 80 -44 80 -89 0
-46 32 -82 81 -92 65 -13 183 -6 225 13 l41 19 22 -52 c11 -28 21 -54 21 -58
0 -3 -17 0 -37 7 -21 7 -96 23 -168 35 -71 12 -143 28 -160 35 -16 7 -86 25
-155 40 -69 15 -204 45 -300 66 -96 21 -256 57 -355 79 -99 21 -248 54 -331
73 l-151 33 -10 -60 c-6 -34 -34 -207 -62 -386 -28 -179 -53 -332 -56 -340 -3
-8 -16 -89 -30 -180 -14 -91 -27 -175 -30 -187 -8 -35 21 -19 85 47 30 31 90
85 133 120 43 36 114 94 157 130 122 101 184 135 246 134 105 -3 153 -51 139
-140 -6 -40 -12 -50 -52 -77 -143 -99 -193 -162 -193 -240 0 -77 55 -157 135
-200 31 -16 59 -21 120 -21 126 -1 171 19 285 129 165 160 224 194 304 175 47
-10 64 -26 72 -66 5 -25 -1 -39 -41 -87 -25 -31 -52 -72 -60 -92 -31 -73 -9
-171 51 -227 59 -55 140 -64 211 -23 44 26 46 26 44 -11 -2 -18 5 -22 39 -27
22 -3 100 -35 172 -72 179 -91 179 -91 254 -55 140 67 343 106 367 69 5 -9 7
-27 4 -41 -16 -64 -177 -217 -281 -267 -91 -45 -146 -46 -579 -17 -41 3 -48 0
-52 -18 -3 -12 -28 -156 -55 -321 -40 -234 -138 -814 -140 -821 -1 -7 -186
-26 -453 -49 -75 -7 -79 -8 -73 -28 4 -12 9 -87 12 -167 6 -129 3 -161 -20
-291 -28 -156 -32 -241 -15 -286 23 -61 115 -130 220 -164 107 -35 133 -64 91
-103 -28 -24 -160 -54 -314 -68 -229 -23 -359 0 -366 64 -5 45 16 103 63 172
59 86 77 162 78 326 1 106 -3 134 -22 185 -63 169 -81 239 -81 317 0 43 -1 78
-2 78 -2 0 -55 9 -118 20 -158 27 -146 30 -153 -41 -7 -84 -63 -162 -200 -277
-31 -26 -38 -40 -43 -79 -15 -116 -124 -267 -233 -323 -154 -78 -312 -42 -394
90 -29 47 -39 141 -23 218 19 90 46 143 108 208 98 104 208 151 322 138 l58
-6 -5 28 c-3 16 -9 55 -12 87 -4 31 -10 57 -14 57 -4 0 -56 9 -117 21 -60 11
-129 24 -154 28 -25 4 -44 12 -43 17 1 6 20 112 42 235 22 123 52 285 65 359
79 427 126 694 123 697 -2 2 -33 -4 -68 -14 -46 -13 -102 -17 -199 -17 -176 0
-242 19 -364 105 -105 75 -151 124 -167 179 -25 82 12 120 116 120 106 -1 134
-12 196 -80 l56 -62 116 -1 115 -2 68 47 c70 47 128 79 176 97 31 11 23 -21
103 426 31 171 67 371 80 446 23 124 37 165 151 450 l125 314 9 115 c5 63 10
118 10 123 0 11 8 10 166 -32z m187 -331 c9 0 17 -7 17 -15 0 -17 -4 -18 -49
-9 -18 4 -31 13 -31 21 0 11 7 14 23 9 12 -3 30 -6 40 -6z m103 -29 c22 -5 60
-15 87 -22 26 -6 47 -16 47 -20 0 -13 -32 -11 -62 5 -14 8 -42 14 -61 14 -38
0 -77 17 -77 33 0 6 6 9 14 6 8 -3 31 -10 52 -16z m312 -67 c12 -4 22 -13 22
-21 0 -11 -6 -14 -22 -9 -13 3 -29 6 -35 6 -7 0 -13 7 -13 15 0 16 12 18 48 9z
m220 -62 c2 -8 -8 -12 -27 -12 -30 0 -47 13 -37 29 8 12 59 -2 64 -17z m199
-46 c21 -8 53 -18 72 -23 19 -4 37 -15 39 -22 4 -11 -1 -12 -19 -7 -13 4 -54
14 -91 24 -40 9 -68 21 -68 29 0 17 20 16 67 -1z m-994 -226 c11 0 17 -8 17
-22 0 -17 3 -19 12 -10 22 22 86 14 114 -13 23 -23 29 -25 58 -14 42 15 86 1
106 -33 12 -23 12 -37 1 -104 -7 -43 -17 -88 -22 -100 -8 -22 -10 -22 -49 -11
-23 7 -42 14 -42 17 0 3 5 38 12 78 10 56 11 75 1 85 -23 23 -45 -7 -61 -82
l-14 -73 -41 7 c-22 3 -43 9 -47 13 -3 4 0 37 9 75 17 77 13 100 -19 95 -20
-3 -25 -13 -39 -78 l-15 -75 -40 3 c-21 2 -43 7 -47 11 -4 5 4 59 18 121 14
62 25 115 25 118 0 2 10 2 23 -2 12 -3 30 -6 40 -6z m603 -40 c15 0 19 -37 6
-57 -9 -14 -79 -7 -88 9 -3 5 -3 21 1 35 5 22 10 25 37 19 17 -3 37 -6 44 -6z
m282 -65 c2 -2 -12 -76 -30 -164 l-33 -162 -40 7 c-22 3 -43 9 -46 13 -7 7 51
299 64 318 5 8 17 9 45 1 20 -5 38 -11 40 -13z m-289 -31 c4 -3 -2 -31 -33
-174 l-12 -55 -44 3 c-24 2 -45 4 -47 6 -2 1 6 45 17 97 33 156 25 142 73 134
23 -4 44 -9 46 -11z m554 -23 c4 -4 1 -40 -8 -80 -8 -40 -15 -75 -15 -78 0 -2
18 8 40 24 37 28 42 29 90 19 27 -5 50 -13 50 -17 0 -4 -20 -19 -45 -34 -33
-19 -44 -31 -41 -43 39 -127 47 -154 44 -157 -6 -7 -93 18 -99 28 -4 5 -10 27
-13 49 -8 50 -36 49 -52 -2 -7 -19 -16 -35 -20 -35 -24 1 -84 17 -84 22 0 9
60 294 66 312 3 10 14 11 42 6 20 -3 40 -10 45 -14z m154 -733 c-3 -7 -5 -2
-5 12 0 14 2 19 5 13 2 -7 2 -19 0 -25z"/>
<path d="M3413 5887 c-39 -100 -70 -183 -68 -185 1 -1 34 39 72 90 l70 93 8
93 c4 50 3 92 -1 92 -5 0 -41 -82 -81 -183z"/>
<path d="M3302 4655 c0 -16 2 -22 5 -12 2 9 2 23 0 30 -3 6 -5 -1 -5 -18z"/>
<path d="M3257 4387 c-35 -214 -42 -265 -33 -256 7 6 78 470 73 475 -2 2 -20
-96 -40 -219z"/>
<path d="M3611 4524 c-28 -12 -83 -94 -63 -94 5 0 30 16 56 36 26 20 58 42 72
49 l25 13 -30 4 c-17 2 -44 -1 -60 -8z"/>
<path d="M4602 4310 c4 -11 98 -110 104 -110 10 0 -8 65 -22 81 -15 17 -87 43
-82 29z"/>
<path d="M3625 4161 c-140 -64 -176 -244 -71 -359 94 -105 284 -76 345 52 27
54 28 146 2 202 -46 102 -175 151 -276 105z m173 -63 c48 -30 75 -89 70 -155
-8 -88 -73 -153 -155 -153 -120 0 -201 114 -159 224 39 103 150 142 244 84z"/>
<path d="M3676 3994 c-20 -19 -21 -58 -2 -73 25 -21 69 -9 80 21 17 50 -42 89
-78 52z"/>
<path d="M3207 4091 c-4 -18 -7 -43 -6 -55 1 -11 5 -1 10 24 5 25 7 49 6 55
-2 5 -7 -5 -10 -24z"/>
<path d="M4304 4001 c-111 -50 -157 -196 -96 -306 68 -124 225 -153 329 -62
94 83 98 244 7 329 -62 58 -162 74 -240 39z m162 -50 c55 -25 87 -71 92 -136
7 -87 -45 -159 -131 -180 -45 -12 -96 4 -138 42 -69 62 -76 162 -16 230 56 63
119 78 193 44z"/>
<path d="M4362 3838 c-7 -7 -12 -24 -12 -38 0 -32 17 -50 45 -50 25 0 55 29
55 52 0 36 -62 62 -88 36z"/>
<path d="M3192 3980 c0 -19 2 -27 5 -17 2 9 2 25 0 35 -3 9 -5 1 -5 -18z"/>
<path d="M4887 3925 c-4 -8 -2 -17 3 -20 6 -4 10 3 10 14 0 25 -6 27 -13 6z"/>
<path d="M3181 3904 c0 -11 3 -14 6 -6 3 7 2 16 -1 19 -3 4 -6 -2 -5 -13z"/>
<path d="M3166 3829 c-8 -42 0 -50 9 -9 4 17 5 34 2 36 -2 3 -7 -10 -11 -27z"/>
<path d="M3156 3765 c-3 -9 -6 -29 -5 -43 1 -22 3 -19 10 12 10 40 6 60 -5 31z"/>
<path d="M3132 3599 c-7 -36 -12 -74 -11 -85 1 -10 7 15 15 56 8 41 12 80 10
85 -1 6 -8 -20 -14 -56z"/>
<path d="M3544 3498 c-20 -32 163 -137 321 -184 79 -24 108 -27 235 -28 157
-1 227 7 256 29 17 12 17 15 4 28 -13 13 -25 13 -95 0 -94 -17 -246 -12 -347
11 -84 20 -214 75 -282 121 -56 37 -80 43 -92 23z"/>
<path d="M3111 3489 c-1 -3 -12 -72 -26 -155 -14 -82 -24 -160 -24 -174 1 -14
14 52 30 145 16 94 27 175 24 180 -2 6 -4 8 -4 4z"/>
<path d="M3052 3105 c0 -16 2 -22 5 -12 2 9 2 23 0 30 -3 6 -5 -1 -5 -18z"/>
<path d="M3606 3082 c-21 -77 -11 -126 17 -89 7 9 23 17 37 19 21 2 26 9 28
41 2 20 0 37 -5 38 -4 0 -22 2 -40 5 -24 3 -33 -1 -37 -14z m54 -27 c0 -8 -4
-15 -10 -15 -5 0 -10 7 -10 15 0 8 5 15 10 15 6 0 10 -7 10 -15z"/>
<path d="M3727 3073 c-14 -13 -6 -25 13 -20 11 3 23 1 26 -4 3 -5 -8 -9 -24
-9 -32 0 -49 -22 -29 -38 7 -5 26 -12 44 -15 31 -6 33 -5 39 30 5 29 3 39 -11
50 -20 14 -48 17 -58 6z"/>
<path d="M3833 3053 c-19 -7 -15 -31 7 -45 27 -17 26 -32 -1 -18 -28 15 -39 2
-15 -16 25 -17 50 -18 64 -1 12 15 5 28 -23 46 -19 12 -19 12 2 8 32 -7 37 8
7 22 -14 6 -26 11 -27 10 -1 0 -8 -3 -14 -6z"/>
<path d="M3931 3046 c-7 -8 -11 -34 -9 -58 2 -32 8 -44 21 -46 16 -3 18 1 12
26 -4 21 -2 31 9 35 12 5 13 10 3 31 -14 30 -20 32 -36 12z"/>
<path d="M3040 3040 c0 -5 5 -10 11 -10 5 0 7 5 4 10 -3 6 -8 10 -11 10 -2 0
-4 -4 -4 -10z"/>
<path d="M3128 3013 c6 -2 18 -2 25 0 6 3 1 5 -13 5 -14 0 -19 -2 -12 -5z"/>
<path d="M3992 2998 c-7 -7 -12 -21 -12 -33 0 -12 5 -26 12 -33 14 -14 68 -16
68 -2 0 6 -12 10 -26 10 -14 0 -23 4 -20 9 3 4 16 6 30 4 31 -6 39 8 20 35
-17 24 -53 29 -72 10z m48 -18 c0 -5 -4 -10 -10 -10 -5 0 -10 5 -10 10 0 6 5
10 10 10 6 0 10 -4 10 -10z"/>
<path d="M3268 2983 c7 -3 16 -2 19 1 4 3 -2 6 -13 5 -11 0 -14 -3 -6 -6z"/>
<path d="M4094 2977 c-3 -9 -4 -28 -2 -43 2 -23 9 -30 38 -35 19 -4 36 -6 38
-4 2 2 6 22 9 46 5 32 3 41 -8 37 -7 -2 -16 -15 -19 -27 -7 -29 -25 -23 -25 8
0 28 -22 40 -31 18z"/>
<path d="M4282 2978 c6 -18 28 -21 28 -4 0 9 -7 16 -16 16 -9 0 -14 -5 -12
-12z"/>
<path d="M3308 2973 c6 -2 18 -2 25 0 6 3 1 5 -13 5 -14 0 -19 -2 -12 -5z"/>
<path d="M3368 2963 c7 -3 16 -2 19 1 4 3 -2 6 -13 5 -11 0 -14 -3 -6 -6z"/>
<path d="M4205 2957 c-2 -7 -6 -25 -7 -41 -4 -35 18 -46 27 -14 14 45 50 52
42 8 -6 -29 8 -50 23 -34 5 5 10 22 12 38 3 28 0 30 -45 42 -37 9 -49 9 -52 1z"/>
<path d="M3418 2953 c7 -3 16 -2 19 1 4 3 -2 6 -13 5 -11 0 -14 -3 -6 -6z"/>
<path d="M3458 2943 c6 -2 18 -2 25 0 6 3 1 5 -13 5 -14 0 -19 -2 -12 -5z"/>
<path d="M3518 2933 c7 -3 16 -2 19 1 4 3 -2 6 -13 5 -11 0 -14 -3 -6 -6z"/>
<path d="M4327 2925 c-4 -8 5 -22 21 -34 l27 -21 -35 6 c-33 5 -34 5 -16 -10
26 -21 65 -20 73 0 4 11 -2 23 -18 35 -24 18 -24 18 -1 12 25 -6 31 12 6 21
-27 10 -52 7 -57 -9z"/>
<path d="M3550 2926 c0 -2 13 -6 29 -8 17 -2 28 -1 25 4 -5 8 -54 12 -54 4z"/>
<path d="M3630 2910 c20 -13 33 -13 25 0 -3 6 -14 10 -23 10 -15 0 -15 -2 -2
-10z"/>
<path d="M4431 2906 c-7 -8 -11 -27 -9 -43 2 -23 8 -29 36 -31 36 -4 44 14 10
21 -17 3 -14 5 10 6 35 1 42 19 16 45 -19 20 -48 20 -63 2z m44 -16 c3 -5 -1
-10 -10 -10 -9 0 -13 5 -10 10 3 6 8 10 10 10 2 0 7 -4 10 -10z"/>
<path d="M4590 2904 c0 -11 -6 -13 -19 -9 -26 8 -53 -21 -49 -53 2 -21 10 -28
38 -33 19 -4 38 -5 42 -1 4 4 10 31 14 60 6 44 4 52 -10 52 -9 0 -16 -7 -16
-16z m-10 -48 c0 -8 -4 -17 -9 -21 -12 -7 -24 12 -16 25 9 15 25 12 25 -4z"/>
<path d="M3688 2898 c5 -5 16 -8 23 -6 8 3 3 7 -10 11 -17 4 -21 3 -13 -5z"/>
<path d="M3748 2883 c7 -3 16 -2 19 1 4 3 -2 6 -13 5 -11 0 -14 -3 -6 -6z"/>
<path d="M3798 2873 c7 -3 16 -2 19 1 4 3 -2 6 -13 5 -11 0 -14 -3 -6 -6z"/>
<path d="M3848 2863 c6 -2 18 -2 25 0 6 3 1 5 -13 5 -14 0 -19 -2 -12 -5z"/>
<path d="M3891 2856 c5 -5 195 -46 212 -46 30 0 -12 13 -98 30 -99 20 -122 23
-114 16z"/>
<path d="M4140 2800 c14 -4 36 -8 50 -8 22 0 22 1 -5 8 -16 4 -39 8 -50 8 -16
0 -15 -2 5 -8z"/>
<path d="M4238 2783 c7 -3 16 -2 19 1 4 3 -2 6 -13 5 -11 0 -14 -3 -6 -6z"/>
<path d="M4320 2766 c0 -2 11 -6 25 -8 13 -3 22 -1 19 3 -5 9 -44 13 -44 5z"/>
<path d="M4400 2750 c8 -5 20 -10 25 -10 6 0 3 5 -5 10 -8 5 -19 10 -25 10 -5
0 -3 -5 5 -10z"/>
<path d="M4461 2736 c2 -2 22 -6 44 -10 29 -5 36 -4 25 3 -13 10 -79 16 -69 7z"/>
</g>
</svg>
